<svg width="160" height="108" viewBox="0 0 160 108" fill="none" xmlns="http://www.w3.org/2000/svg">
<path d="M0.0486755 4.42568C0.0486755 4.42568 22.9173 36.1347 47.494 7.74795C72.0708 -20.6388 95.9237 38.1753 50.4319 37.3092C4.94013 36.4431 0.0486755 4.42568 0.0486755 4.42568Z" fill="#7159C1"/>
<path d="M159.246 4.42568C159.246 4.42568 136.377 36.1347 111.799 7.74795C87.2217 -20.6388 63.3681 38.1753 108.861 37.3092C154.355 36.4431 159.246 4.42568 159.246 4.42568Z" fill="#7159C1"/>
<path d="M159.049 15C160.049 24 146.049 82 80.0486 108C13.0487 83.5 -0.951324 25 0.0486748 15.5C1.04868 29 40 91.5 80.0486 65.5C117 94.5 158.049 28 159.049 15Z" fill="#7159C1"/>
</svg>
